<svg xmlns="http://www.w3.org/2000/svg" width="90" height="90" viewBox="0 0 90 90" aria-hidden="true">
  <title>File icon set</title>
    <g data-icon="upload">
      <circle cx="45" cy="45" r="45" fill="#854678"></circle>
      <rect x="40.9092" y="22.5" width="8.18182" height="45" fill="#FFFFFF"></rect>
      <rect x="22.5" y="49.0908" width="8.18182" height="45" transform="rotate(-90 22.5 49.0908)" fill="#FFFFFF"></rect>
    </g>
    <g data-icon="uploaded">
      <circle cx="45" cy="45" r="45" fill="#009049"></circle>
      <path d="M19 48.5L34.5 64L70.5 28" stroke="white" fill="none" stroke-width="8"></path>
    </g>
    <g data-icon="upload-error" transform="translate(70.000000, 66.000000)">
      <circle cx="-24.917" cy="-20.917" r="45.083" fill="#A72326"></circle>
      <path d="M-17.861-50.681l-3.284,39.991h-7.731l-3.189-39.991H-17.861z M-32.358,1.634
        c0-2.141,0.708-3.874,2.127-5.211c1.42-1.339,3.158-2.006,5.221-2.006c2.121,0,3.909,0.667,5.362,2.006
        c1.445,1.337,2.174,3.07,2.174,5.211c0,2.136-0.729,3.871-2.174,5.21c-1.453,1.336-3.241,2.003-5.362,2.003
        c-2.063,0-3.801-0.667-5.221-2.003C-31.65,5.505-32.358,3.77-32.358,1.634z" fill="#FFFFFF"></path>
    </g>
</svg>
